<svg width="26" height="26" viewBox="0 0 26 26" fill="none" xmlns="http://www.w3.org/2000/svg">
<path d="M25.6132 5.34836C24.7087 5.74919 23.7369 6.02002 22.7153 6.14244C23.7694 5.51172 24.558 4.51903 24.934 3.34961C23.9437 3.93785 22.8598 4.3519 21.7295 4.57377C20.9694 3.76221 19.9626 3.22429 18.8655 3.04354C17.7684 2.86278 16.6423 3.0493 15.662 3.57413C14.6817 4.09896 13.9022 4.93275 13.4443 5.94604C12.9865 6.95932 12.876 8.09542 13.13 9.17794C11.1233 9.07719 9.16026 8.55562 7.3682 7.64709C5.57615 6.73856 3.99515 5.46337 2.72783 3.90427C2.29449 4.65177 2.04533 5.51844 2.04533 6.44144C2.04484 7.27235 2.24946 8.09054 2.64103 8.8234C3.03259 9.55627 3.599 10.1811 4.28999 10.6426C3.48863 10.6171 2.70494 10.4006 2.00416 10.011V10.076C2.00408 11.2414 2.40719 12.3709 3.14511 13.2729C3.88302 14.1749 4.91028 14.7939 6.05258 15.0247C5.30917 15.2259 4.52977 15.2555 3.77324 15.1114C4.09553 16.1141 4.72332 16.991 5.56872 17.6192C6.41413 18.2474 7.43482 18.5956 8.48791 18.6149C6.70023 20.0182 4.49245 20.7795 2.21974 20.7761C1.81716 20.7762 1.41491 20.7527 1.01508 20.7057C3.32201 22.189 6.00744 22.9762 8.75008 22.9731C18.0342 22.9731 23.1097 15.2836 23.1097 8.61461C23.1097 8.39794 23.1042 8.17911 23.0945 7.96244C24.0817 7.2485 24.9339 6.36441 25.6111 5.35161L25.6132 5.34836Z" fill="white"/>
</svg>
